<?xml version="1.0" standalone="no"?>
<!DOCTYPE svg PUBLIC "-//W3C//DTD SVG 20010904//EN"
 "http://www.w3.org/TR/2001/REC-SVG-20010904/DTD/svg10.dtd">
<svg version="1.0" xmlns="http://www.w3.org/2000/svg"
 width="523.000000pt" height="523.000000pt" viewBox="0 0 523.000000 370.000000"
 preserveAspectRatio="xMidYMid meet">

<g transform="translate(0.000000,370.000000) scale(0.100000,-0.100000)"
fill="#000000" stroke="none">
<path d="M3198 2852 c-48 -29 -50 -147 -5 -220 13 -20 26 -45 30 -54 13 -36
77 -12 68 26 -1 5 5 16 14 26 21 23 30 143 14 182 -12 28 -55 59 -81 57 -7 0
-25 -8 -40 -17z"/>
<path d="M2466 2558 c-8 -13 -17 -37 -20 -53 -6 -28 -1 -35 50 -80 95 -81 166
-106 171 -60 2 11 0 14 -3 8 -4 -10 -9 -10 -20 1 -15 16 -19 41 -5 32 13 -8
41 4 41 18 0 6 -14 20 -30 31 -16 11 -30 26 -30 34 0 8 -19 31 -42 53 -49 45
-90 51 -112 16z"/>
<path d="M3910 2540 c-19 -16 -40 -30 -46 -30 -23 0 -64 -42 -64 -66 0 -13 -4
-24 -8 -24 -5 0 -14 -12 -20 -26 -13 -28 -6 -48 27 -78 20 -18 21 -18 64 3 24
11 47 21 50 21 4 0 37 30 72 68 66 68 74 88 55 136 -8 22 -16 26 -52 26 -33 0
-51 -7 -78 -30z"/>
<path d="M3155 2363 c-91 -13 -224 -78 -291 -142 -77 -73 -136 -169 -166 -271
-17 -60 -17 -254 1 -300 68 -175 168 -294 301 -358 187 -90 398 -69 571 56 90
65 164 178 204 313 31 101 31 169 3 273 -36 135 -104 235 -212 315 -129 95
-269 134 -411 114z"/>
<path d="M2292 1870 c-48 -4 -67 -10 -78 -24 -20 -28 -17 -79 7 -110 19 -24
26 -26 95 -26 55 0 85 5 114 20 22 11 46 20 55 20 12 0 15 12 15 54 l0 55 -52
9 c-29 6 -62 9 -73 8 -11 0 -49 -3 -83 -6z"/>
<path d="M4105 1853 c-4 -10 -9 -39 -11 -65 -6 -68 8 -78 107 -76 73 1 82 3
100 27 25 31 19 74 -13 108 -19 20 -31 23 -99 23 -64 0 -78 -3 -84 -17z"/>
<path d="M3767 1252 c-15 -15 -27 -32 -27 -37 0 -23 70 -107 118 -141 90 -65
106 -74 133 -74 55 0 79 91 37 133 -63 62 -119 99 -157 104 -28 4 -42 12 -46
24 -9 27 -27 24 -58 -9z"/>
<path d="M2637 1259 c-9 -5 -21 -8 -26 -5 -10 6 -171 -157 -171 -173 0 -18 67
-81 87 -81 10 0 29 10 43 23 14 13 33 27 42 33 9 5 44 35 77 67 65 63 67 72
23 120 -27 29 -46 33 -75 16z"/>
<path d="M3184 1009 c-16 -18 -19 -37 -19 -126 0 -102 1 -106 28 -129 81 -70
149 24 128 177 -5 39 -15 77 -21 85 -19 22 -93 18 -116 -7z"/>
</g>
</svg>
