<?xml version="1.0" standalone="no"?>
<!DOCTYPE svg PUBLIC "-//W3C//DTD SVG 20010904//EN"
 "http://www.w3.org/TR/2001/REC-SVG-20010904/DTD/svg10.dtd">
<svg version="1.0" xmlns="http://www.w3.org/2000/svg"
 width="267.000000pt" height="199.000000pt" viewBox="0 0 267.000000 199.000000"
 preserveAspectRatio="xMidYMid meet">

<g transform="translate(0.000000,199.000000) scale(0.100000,-0.100000)"
fill="#000000" stroke="none">
<path d="M443 1366 c-229 -229 -293 -299 -293 -318 0 -36 575 -618 610 -618
24 0 120 92 120 115 0 6 -108 120 -240 253 -132 133 -240 245 -240 249 0 4
108 116 240 247 132 132 240 245 240 252 0 6 -21 34 -48 63 -32 35 -55 51 -72
51 -19 0 -92 -67 -317 -294z"/>
<path d="M1561 1605 c-42 -44 -50 -58 -42 -72 5 -10 87 -95 183 -190 95 -95
201 -201 236 -236 l64 -64 -239 -243 c-131 -133 -238 -248 -238 -255 0 -21 93
-115 114 -115 12 0 127 109 307 290 268 269 289 292 289 325 0 32 -21 55 -290
325 -199 199 -296 290 -311 290 -13 0 -42 -22 -73 -55z"/>
</g>
</svg>
