<?xml version="1.0" standalone="no"?>
<!DOCTYPE svg PUBLIC "-//W3C//DTD SVG 20010904//EN"
 "http://www.w3.org/TR/2001/REC-SVG-20010904/DTD/svg10.dtd">
<svg version="1.0" xmlns="http://www.w3.org/2000/svg"
 width="314.000000pt" height="283.000000pt" viewBox="0 0 314.000000 283.000000"
 preserveAspectRatio="xMidYMid meet">

<g transform="translate(0.000000,283.000000) scale(0.100000,-0.100000)"
fill="#000000" stroke="none">
<path d="M554 2417 c-47 -25 -96 -85 -113 -137 -20 -64 1 -144 62 -235 107
-159 344 -522 387 -592 42 -68 46 -71 61 -54 9 10 25 33 34 52 22 43 81 106
119 126 41 21 116 43 151 43 17 0 80 -16 141 -36 129 -43 165 -41 213 8 36 37
47 83 32 131 -15 44 -38 64 -136 118 -116 63 -173 134 -179 223 -3 45 2 64 68
249 l45 127 -422 -1 c-415 0 -423 0 -463 -22z"/>
<path d="M1618 2363 c-15 -43 -42 -121 -60 -173 -21 -59 -32 -104 -28 -119 4
-18 30 -39 95 -76 50 -28 107 -68 129 -89 111 -110 118 -312 16 -429 -51 -57
-151 -109 -223 -115 -54 -4 -152 15 -222 42 -96 37 -135 14 -220 -127 l-54
-91 28 -50 c16 -28 70 -123 119 -211 139 -246 132 -237 198 -272 61 -32 79
-33 153 -13 70 18 111 69 221 269 56 101 112 200 124 220 12 20 30 54 41 76
11 22 22 42 25 45 6 5 37 57 78 130 14 25 41 71 61 102 20 31 61 97 91 145 30
48 74 116 98 150 23 35 42 65 42 68 0 3 19 31 43 62 82 110 150 234 159 287 9
60 -14 151 -44 169 -10 7 -18 17 -18 24 0 7 -7 13 -15 13 -8 0 -31 9 -52 20
-34 18 -59 19 -398 20 l-361 0 -26 -77z"/>
</g>
</svg>
