<?xml version="1.0" standalone="no"?>
<!DOCTYPE svg PUBLIC "-//W3C//DTD SVG 20010904//EN"
 "http://www.w3.org/TR/2001/REC-SVG-20010904/DTD/svg10.dtd">
<svg version="1.0" xmlns="http://www.w3.org/2000/svg"
 width="273.000000pt" height="270.000000pt" viewBox="0 0 273.000000 270.000000"
 preserveAspectRatio="xMidYMid meet">

<g transform="translate(0.000000,270.000000) scale(0.100000,-0.100000)"
fill="#000000" stroke="none">
<path d="M1160 2512 c-20 -21 -32 -46 -40 -90 l-13 -62 -81 0 c-83 0 -136 -10
-193 -37 l-33 -15 0 -173 c0 -171 0 -174 25 -204 52 -62 83 -66 455 -66 332 0
335 0 388 24 76 34 81 48 82 240 2 137 -1 165 -14 180 -23 26 -109 51 -171 51
-100 0 -108 4 -130 73 -28 86 -60 107 -167 107 -74 0 -82 -2 -108 -28z"/>
<path d="M496 2189 c-57 -21 -99 -58 -129 -114 -22 -40 -22 -44 -22 -645 l0
-605 29 -52 c31 -57 79 -95 141 -113 29 -8 251 -10 785 -8 l745 3 45 27 c25
14 53 36 64 49 46 55 46 53 46 699 0 669 2 647 -60 707 -27 26 -120 73 -145
73 -3 0 -5 -299 -5 -665 l0 -665 -715 0 -715 0 0 665 c0 366 -3 665 -7 664 -5
0 -30 -9 -57 -20z"/>
</g>
</svg>
